PathFileType	4	(X/Y/Z)	/Users/itak/Documents/Research/Walk-IL/dataset/trc/00325_00011.trc
DataRate	CameraRate	NumFrames	NumMarkers	Units	OrigDataRate	OrigDataStartFrame	OrigNumFrames
100.000000	100.000000	4	54	mm	100.000000	216	433
Frame#	Time	RPSI			LPSI			L3			STRN			T10			C7			CLAV			RBAK			LBAK			LSHO			LUPA			LAEL			LAOL			LWPS			LFRA			LIFD			LHPS			LHTS			RSHO			RUPA			RAEL			RAOL			RWTS			RWPS			RFRA			RIFD			RHTS			RHPS			RBHD			LFHD			RFHD			LBHD			LHIP			RHIP			RASI			LASI			LKNE			LTHI			LANK			LTIP			LTOE			LMT1			LMT5			LHEE			RKNE			RANK			RTIP			RTOE			RMT1			RMT5			RHEE			LWTS			RTHI			*53			
		X1	Y1	Z1	X2	Y2	Z2	X3	Y3	Z3	X4	Y4	Z4	X5	Y5	Z5	X6	Y6	Z6	X7	Y7	Z7	X8	Y8	Z8	X9	Y9	Z9	X10	Y10	Z10	X11	Y11	Z11	X12	Y12	Z12	X13	Y13	Z13	X14	Y14	Z14	X15	Y15	Z15	X16	Y16	Z16	X17	Y17	Z17	X18	Y18	Z18	X19	Y19	Z19	X20	Y20	Z20	X21	Y21	Z21	X22	Y22	Z22	X23	Y23	Z23	X24	Y24	Z24	X25	Y25	Z25	X26	Y26	Z26	X27	Y27	Z27	X28	Y28	Z28	X29	Y29	Z29	X30	Y30	Z30	X31	Y31	Z31	X32	Y32	Z32	X33	Y33	Z33	X34	Y34	Z34	X35	Y35	Z35	X36	Y36	Z36	X37	Y37	Z37	X38	Y38	Z38	X39	Y39	Z39	X40	Y40	Z40	X41	Y41	Z41	X42	Y42	Z42	X43	Y43	Z43	X44	Y44	Z44	X45	Y45	Z45	X46	Y46	Z46	X47	Y47	Z47	X48	Y48	Z48	X49	Y49	Z49	X50	Y50	Z50	X51	Y51	Z51	X52	Y52	Z52	X53	Y53	Z53	X54	Y54	Z54	

217	2.16	-644.6519165039062	949.9264526367188	145.9726715087891	-648.0034790039062	957.3123779296875	17.32685661315918	-651.7965698242188	1015.105285644531	73.98536682128906	-414.4445190429688	1192.017822265625	72.47305297851562	-658.9874877929688	1134.60498046875	59.16361236572266	-607.495849609375	1379.867797851562	44.65337371826172	-453.1110534667969	1318.981079101562	66.49346160888672	-664.247314453125	1243.312255859375	106.7442321777344	-607.6947021484375	1342.52197265625	-59.82220077514648	-516.195068359375	1362.205078125	-101.6558990478516	-503.1222229003906	1248.395629882812	-176.2189788818359	-408.8137512207031	1068.216430664062	-204.1677856445312	-465.583984375	1024.1689453125	-158.1876068115234	-247.9915924072266	865.2318115234375	-223.5133361816406	-350.5121154785156	980.3114013671875	-216.1553497314453	-140.1664428710938	749.3817138671875	-171.8672943115234	-216.6567840576172	802.26513671875	-223.9135284423828	-175.0848846435547	825.4204711914062	-183.0079650878906	-565.8551025390625	1364.873901367188	212.87841796875	-591.1831665039062	1303.95751953125	273.3352966308594	-640.9007568359375	1043.13232421875	306.6605834960938	-660.0994873046875	1039.713500976562	214.0091400146484	-561.6723022460938	799.4766235351562	285.6363220214844	-614.7531127929688	791.2177734375	342.5227661132812	-631.0313110351562	972.6695556640625	321.874755859375	-581.8737182617188	626.0205688476562	293.889892578125	-556.2288818359375	694.914306640625	303.7377624511719	-614.7474365234375	706.4435424804688	340.380126953125	-569.28662109375	1568.426025390625	147.86474609375	-403.8382568359375	1606.164672851562	24.48510932922363	-410.7738952636719	1599.5478515625	125.5794219970703	-586.277587890625	1570.653442382812	2.980591535568237	-573.2257080078125	898.2948608398438	-93.67481231689453	-554.5699462890625	900.0527954101562	250.5033264160156	-457.0538940429688	932.4063110351562	197.2306518554688	-446.357421875	919.5647583007812	-42.64845275878906	-602.2409057617188	446.1349792480469	-48.1869010925293	-579.4855346679688	585.4051513671875	-67.97256469726562	-803.640625	61.02017593383789	-0.3374786972999573	-700.0006713867188	241.7442779541016	-34.00146865844727	-602.1779174804688	42.03194046020508	60.59287261962891	-670.962158203125	31.88187408447266	101.620719909668	-680.5791625976562	45.60963821411133	-11.96713161468506	-838.317626953125	65.50210571289062	66.91340637207031	-353.3431396484375	468.0272827148438	214.5243530273438	-245.1278686523438	57.47348022460938	184.7382659912109	-301.2784423828125	360.906005859375	206.9270324707031	-64.84864044189453	125.9699783325195	143.6088562011719	-110.8858184814453	97.99235534667969	99.79264068603516	-146.1695098876953	75.87618255615234	208.7530822753906	-291.7890014648438	43.12553787231445	136.8280181884766	-222.2375030517578	886.6005249023438	-163.0056915283203	-427.6069641113281	716.1162109375	253.7054290771484	nan	nan	nan	
218	2.17	-632.7074584960938	947.5278930664062	148.5278625488281	-637.5487060546875	955.3472900390625	19.97685241699219	-641.586669921875	1013.286804199219	76.11248016357422	-403.8475341796875	1189.988159179688	72.33901977539062	-648.5936279296875	1132.607421875	60.66461563110352	-597.1622924804688	1377.683471679688	45.53362655639648	-442.6497497558594	1316.9189453125	66.68354797363281	-653.6256713867188	1240.994873046875	107.7842864990234	-597.8671264648438	1340.311767578125	-59.04323959350586	-506.5071105957031	1360.061279296875	-101.2093353271484	-493.2492065429688	1246.265502929688	-175.6630706787109	-398.0105895996094	1066.466918945312	-203.5461883544922	-454.5490112304688	1022.289794921875	-157.5757293701172	-234.2405242919922	865.8226928710938	-221.4879913330078	-338.5622863769531	979.1740112304688	-215.0808410644531	-124.1353988647461	752.4573364257812	-168.6347045898438	-201.6016387939453	803.5870971679688	-221.2416229248047	-159.7817077636719	828.4075927734375	-181.1702728271484	-554.8541259765625	1362.449462890625	213.6610565185547	-580.0728759765625	1301.470703125	274.0821838378906	-630.3558959960938	1040.699584960938	307.1182861328125	-649.4965209960938	1037.34033203125	214.4716339111328	-552.5797729492188	796.4579467773438	286.1576843261719	-605.6461181640625	788.7879028320312	343.1529541015625	-620.7669067382812	970.2534790039062	322.3802490234375	-574.9594116210938	623.1777954101562	294.4605102539062	-548.624267578125	691.598388671875	303.8680419921875	-606.6758422851562	704.0630493164062	341.0478210449219	-558.7978515625	1566.5048828125	148.2728271484375	-393.4404602050781	1604.1337890625	24.73651885986328	-400.2904357910156	1597.5546875	125.8123550415039	-575.882080078125	1568.604125976562	3.40396523475647	-563.8357543945312	896.7424926757812	-91.97453308105469	-541.3360595703125	897.3759765625	251.8576049804688	-444.5387878417969	930.1610717773438	197.3726043701172	-436.329345703125	917.8863525390625	-42.67227935791016	-595.8845825195312	445.6726684570312	-48.07537078857422	-572.1600952148438	584.68896484375	-67.60294342041016	-803.0371704101562	63.21904754638672	0.3112229704856873	-696.68603515625	242.5455780029297	-33.52801895141602	-601.8926391601562	41.85266876220703	60.60140609741211	-670.6791381835938	32.05997085571289	101.864616394043	-680.1897583007812	46.12646484375	-11.78345966339111	-837.4716186523438	68.55592346191406	67.65077209472656	-342.9244079589844	464.6070861816406	214.3458709716797	-219.8477630615234	58.10582733154297	184.5504150390625	-287.9472351074219	360.0036010742188	207.1941070556641	-41.90333938598633	132.4571533203125	143.0235595703125	-87.33645629882812	103.4711074829102	99.31625366210938	-121.1965942382812	79.41214752197266	208.4447784423828	-266.6645202636719	42.60093688964844	136.7568969726562	-208.2310485839844	888.751708984375	-161.5109710693359	-415.8681335449219	712.6310424804688	254.0991821289062	nan	nan	nan	
219	2.18	-620.645263671875	945.0816650390625	151.1729736328125	-626.9814453125	953.3820190429688	22.7060489654541	-631.199462890625	1011.439270019531	78.46883392333984	-393.0734558105469	1188.02783203125	72.26422119140625	-637.9561767578125	1130.585327148438	62.31809616088867	-586.7576293945312	1375.50634765625	46.51900482177734	-432.0442504882812	1314.925048828125	66.94254302978516	-642.7579956054688	1238.623413085938	108.9430541992188	-587.9837036132812	1338.106079101562	-58.13274765014648	-496.7954711914062	1357.927368164062	-100.6878280639648	-483.4408874511719	1244.105834960938	-175.0295104980469	-387.4248352050781	1064.586791992188	-202.8954010009766	-443.7726745605469	1020.3203125	-156.9342956542969	-220.9635314941406	866.1923828125	-219.2853546142578	-326.9563293457031	977.8726806640625	-213.9343872070312	-108.7975997924805	755.298095703125	-165.1002197265625	-187.1113891601562	804.6832275390625	-218.3706817626953	-145.0662536621094	831.146484375	-179.0654449462891	-543.7202758789062	1360.038696289062	214.5496826171875	-568.80029296875	1298.984619140625	274.9494934082031	-619.5953369140625	1038.2373046875	307.6853637695312	-638.664794921875	1034.933837890625	215.0332489013672	-543.1075439453125	793.4989013671875	286.7318725585938	-596.131103515625	786.3427734375	343.8529968261719	-610.25	967.814453125	322.9912719726562	-567.4630126953125	620.4095458984375	295.0743713378906	-540.8597412109375	688.0889282226562	303.7621459960938	-598.0805053710938	701.6226806640625	341.72705078125	-548.2026977539062	1564.649169921875	148.7606353759766	-382.9729614257812	1602.166870117188	25.03320693969727	-389.7143249511719	1595.614135742188	126.1014556884766	-565.40771484375	1566.653076171875	3.924433708190918	-554.2562866210938	895.2230834960938	-90.1669921875	-528.0333251953125	894.7218627929688	253.2597198486328	-431.9504089355469	927.8890380859375	197.5179748535156	-426.1297607421875	916.2525024414062	-42.74171447753906	-589.1051635742188	445.1847534179688	-47.98399353027344	-564.4874877929688	583.9409790039062	-67.19844055175781	-802.298583984375	65.646240234375	0.7797143459320068	-693.0362548828125	243.4127044677734	-33.12406158447266	-601.6271362304688	41.69292831420898	60.60107803344727	-670.3909301757812	32.29283142089844	102.0671234130859	-679.7284545898438	46.62325668334961	-11.6601390838623	-836.5203247070312	71.86112213134766	68.18063354492188	-331.6025695800781	461.736328125	214.3491516113281	-198.201171875	58.49733734130859	184.3138732910156	-274.8293762207031	359.1474304199219	207.5845184326172	-21.96386528015137	136.992431640625	142.7823486328125	-67.06062316894531	107.5660018920898	99.07808685302734	-99.77764892578125	81.80258941650391	208.2620086669922	-245.1024780273438	42.3070182800293	136.5710601806641	-194.8619537353516	890.585205078125	-159.7869262695312	-403.5596008300781	709.5474243164062	254.50439453125	nan	nan	nan	
220	2.19	-608.4868774414062	942.6646118164062	153.8373413085938	-616.2590942382812	951.4448852539062	25.44532012939453	-620.579833984375	1009.587707519531	80.97995758056641	-382.119873046875	1186.160522460938	72.26741790771484	-627.0567626953125	1128.561889648438	64.11203765869141	-576.2659912109375	1373.368408203125	47.61953735351562	-421.2852783203125	1313.02734375	67.27985382080078	-631.6173095703125	1236.237915039062	110.2206115722656	-578.03076171875	1335.940795898438	-57.07431030273438	-487.0554809570312	1355.840942382812	-100.0759963989258	-473.7147216796875	1241.955322265625	-174.3091430664062	-377.0654907226562	1062.624877929688	-202.1968231201172	-433.2374877929688	1018.279968261719	-156.2269134521484	-208.1715545654297	866.3673706054688	-216.9197998046875	-315.6956176757812	976.4500732421875	-212.7129516601562	-94.13716125488281	757.9363403320312	-161.3085479736328	-173.2001495361328	805.5604248046875	-215.3190765380859	-131.0733489990234	833.5506591796875	-176.6443786621094	-532.4373779296875	1357.687744140625	215.5444488525391	-557.346923828125	1296.548461914062	275.9406127929688	-608.582275390625	1035.797119140625	308.3723754882812	-627.5856323242188	1032.552124023438	215.7099761962891	-533.247314453125	790.6444702148438	287.3452758789062	-586.1716918945312	783.9296264648438	344.6314392089844	-599.443359375	965.40625	323.7141418457031	-559.33740234375	617.7636108398438	295.7302551269531	-532.9678344726562	684.355712890625	303.3627624511719	-588.9217529296875	699.1586303710938	342.4179992675781	-537.501220703125	1562.89697265625	149.3358306884766	-372.4339904785156	1600.284912109375	25.37386512756348	-379.0428161621094	1593.758056640625	126.4474792480469	-554.8640747070312	1564.82958984375	4.545296669006348	-544.4561157226562	893.7249755859375	-88.29550933837891	-514.725341796875	892.2127075195312	254.6775665283203	-419.3137512207031	925.6683959960938	197.6730194091797	-415.7273864746094	914.6624755859375	-42.864990234375	-581.8782958984375	444.6668395996094	-47.919189453125	-556.4446411132812	583.1558227539062	-66.75514984130859	-801.4022827148438	68.31584167480469	1.037614703178406	-689.0297241210938	244.3526306152344	-32.8075065612793	-601.3839721679688	41.56250762939453	60.58684921264648	-670.0719604492188	32.61559677124023	102.2175140380859	-679.1923217773438	47.09836196899414	-11.60456562042236	-835.4447021484375	75.44758605957031	68.46986389160156	-319.3007202148438	459.5263061523438	214.5026092529297	-180.31103515625	58.33826065063477	184.0675354003906	-261.7754516601562	358.2460021972656	208.0122985839844	-5.07736873626709	139.2005615234375	142.698486328125	-50.12211608886719	109.8265380859375	98.94284057617188	-81.97397613525391	82.69606781005859	208.1212463378906	-227.2209625244141	41.91072082519531	136.3682250976562	-182.1460266113281	892.0927734375	-157.8431549072266	-390.6667785644531	707.0408935546875	254.9175415039062	nan	nan	nan	
